<?xml version="1.0" encoding="UTF-8"?>
<svg xmlns="http://www.w3.org/2000/svg" xmlns:xlink="http://www.w3.org/1999/xlink" width="720pt" height="720pt" viewBox="0 0 720 720" version="1.1">
<defs>
<g>
<symbol overflow="visible" id="glyph0-0">
<path style="stroke:none;" d=""/>
</symbol>
<symbol overflow="visible" id="glyph0-1">
<path style="stroke:none;" d="M 20.453125 -14.453125 C 20.3125 -16.34375 19.921875 -17.546875 18.984375 -18.78125 C 17.3125 -21 14.609375 -22.234375 11.34375 -22.234375 C 5.15625 -22.234375 1.3125 -17.8125 1.3125 -10.734375 C 1.3125 -3.6875 5.125 0.6875 11.21875 0.6875 C 16.6875 0.6875 20.28125 -2.453125 20.546875 -7.46875 L 16.171875 -7.46875 C 15.875 -4.6875 14.125 -3.09375 11.34375 -3.09375 C 7.859375 -3.09375 5.8125 -5.90625 5.8125 -10.6875 C 5.8125 -15.515625 7.953125 -18.390625 11.484375 -18.390625 C 14.09375 -18.390625 15.5625 -17.125 16.171875 -14.453125 Z M 20.453125 -14.453125 "/>
</symbol>
<symbol overflow="visible" id="glyph0-2">
<path style="stroke:none;" d="M 15.71875 -0.515625 C 15 -1.203125 14.765625 -1.6875 14.765625 -2.484375 L 14.765625 -11.484375 C 14.765625 -14.796875 12.515625 -16.46875 8.125 -16.46875 C 3.75 -16.46875 1.46875 -14.609375 1.203125 -10.859375 L 5.25 -10.859375 C 5.453125 -12.546875 6.15625 -13.078125 8.21875 -13.078125 C 9.84375 -13.078125 10.65625 -12.546875 10.65625 -11.453125 C 10.65625 -10.921875 10.375 -10.46875 9.9375 -10.203125 C 9.359375 -9.90625 9.359375 -9.90625 7.296875 -9.5625 L 5.609375 -9.265625 C 2.40625 -8.734375 0.84375 -7.078125 0.84375 -4.171875 C 0.84375 -1.265625 2.796875 0.6875 5.765625 0.6875 C 7.5625 0.6875 9.1875 -0.0625 10.6875 -1.625 C 10.6875 -0.78125 10.765625 -0.484375 11.15625 0 L 15.71875 0 Z M 10.65625 -6.515625 C 10.65625 -4.078125 9.453125 -2.703125 7.3125 -2.703125 C 5.90625 -2.703125 5.046875 -3.453125 5.046875 -4.65625 C 5.046875 -5.90625 5.703125 -6.515625 7.4375 -6.875 L 8.875 -7.140625 C 9.984375 -7.34375 10.171875 -7.40625 10.65625 -7.65625 Z M 10.65625 -6.515625 "/>
</symbol>
<symbol overflow="visible" id="glyph0-3">
<path style="stroke:none;" d="M 6.203125 -21.875 L 2.015625 -21.875 L 2.015625 0 L 6.203125 0 Z M 6.203125 -21.875 "/>
</symbol>
<symbol overflow="visible" id="glyph0-4">
<path style="stroke:none;" d="M 6.203125 -16.203125 L 2.015625 -16.203125 L 2.015625 0 L 6.203125 0 Z M 6.203125 -21.875 L 2.015625 -21.875 L 2.015625 -18.125 L 6.203125 -18.125 Z M 6.203125 -21.875 "/>
</symbol>
<symbol overflow="visible" id="glyph0-5">
<path style="stroke:none;" d="M 1.765625 -21.875 L 1.765625 0 L 5.96875 0 L 5.96875 -1.65625 C 6.984375 -0.0625 8.40625 0.6875 10.4375 0.6875 C 14.3125 0.6875 17.25 -3 17.25 -7.890625 C 17.25 -10.078125 16.59375 -12.296875 15.515625 -13.859375 C 14.40625 -15.453125 12.421875 -16.46875 10.4375 -16.46875 C 8.40625 -16.46875 6.984375 -15.71875 5.96875 -14.09375 L 5.96875 -21.875 Z M 9.515625 -12.953125 C 11.578125 -12.953125 13.046875 -10.859375 13.046875 -7.859375 C 13.046875 -4.890625 11.609375 -2.8125 9.515625 -2.8125 C 7.375 -2.8125 5.96875 -4.828125 5.96875 -7.953125 C 5.96875 -10.921875 7.40625 -12.953125 9.515625 -12.953125 Z M 9.515625 -12.953125 "/>
</symbol>
<symbol overflow="visible" id="glyph0-6">
<path style="stroke:none;" d="M 1.890625 -16.203125 L 1.890625 0 L 6.09375 0 L 6.09375 -8.609375 C 6.09375 -11.0625 7.3125 -12.296875 9.78125 -12.296875 C 10.234375 -12.296875 10.53125 -12.265625 11.09375 -12.1875 L 11.09375 -16.4375 C 10.859375 -16.46875 10.765625 -16.46875 10.59375 -16.46875 C 8.671875 -16.46875 7.015625 -15.203125 6.09375 -13.015625 L 6.09375 -16.203125 Z M 1.890625 -16.203125 "/>
</symbol>
<symbol overflow="visible" id="glyph0-7">
<path style="stroke:none;" d="M 9.03125 -15.875 L 6.6875 -15.875 L 6.6875 -20.21875 L 2.484375 -20.21875 L 2.484375 -15.875 L 0.421875 -15.875 L 0.421875 -13.078125 L 2.484375 -13.078125 L 2.484375 -3.125 C 2.484375 -0.5625 3.84375 0.6875 6.59375 0.6875 C 7.5625 0.6875 8.25 0.59375 9.03125 0.359375 L 9.03125 -2.578125 C 8.609375 -2.515625 8.40625 -2.484375 8.0625 -2.484375 C 6.953125 -2.484375 6.6875 -2.8125 6.6875 -4.265625 L 6.6875 -13.078125 L 9.03125 -13.078125 Z M 9.03125 -15.875 "/>
</symbol>
<symbol overflow="visible" id="glyph0-8">
<path style="stroke:none;" d="M 9.03125 -16.46875 C 4.078125 -16.46875 1.046875 -13.203125 1.046875 -7.890625 C 1.046875 -2.546875 4.078125 0.6875 9.0625 0.6875 C 14.015625 0.6875 17.0625 -2.546875 17.0625 -7.765625 C 17.0625 -13.265625 14.09375 -16.46875 9.03125 -16.46875 Z M 9.0625 -13.078125 C 11.375 -13.078125 12.875 -11.015625 12.875 -7.828125 C 12.875 -4.796875 11.3125 -2.703125 9.0625 -2.703125 C 6.78125 -2.703125 5.25 -4.765625 5.25 -7.890625 C 5.25 -11.015625 6.78125 -13.078125 9.0625 -13.078125 Z M 9.0625 -13.078125 "/>
</symbol>
<symbol overflow="visible" id="glyph0-9">
<path style="stroke:none;" d="M 1.890625 -16.203125 L 1.890625 0 L 6.09375 0 L 6.09375 -9.71875 C 6.09375 -11.640625 7.40625 -12.90625 9.484375 -12.90625 C 11.28125 -12.90625 12.1875 -11.90625 12.1875 -9.984375 L 12.1875 0 L 16.375 0 L 16.375 -10.859375 C 16.375 -14.453125 14.4375 -16.46875 10.953125 -16.46875 C 8.765625 -16.46875 7.296875 -15.6875 6.09375 -13.859375 L 6.09375 -16.203125 Z M 1.890625 -16.203125 "/>
</symbol>
<symbol overflow="visible" id="glyph0-10">
<path style="stroke:none;" d="M 7.890625 -4.375 L 3.390625 -4.375 L 3.390625 0 L 7.890625 0 Z M 7.890625 -15.59375 L 3.390625 -15.59375 L 3.390625 -11.21875 L 7.890625 -11.21875 Z M 7.890625 -15.59375 "/>
</symbol>
<symbol overflow="visible" id="glyph0-11">
<path style="stroke:none;" d=""/>
</symbol>
<symbol overflow="visible" id="glyph0-12">
<path style="stroke:none;" d="M 6.875 -9.421875 L 17.34375 -9.421875 L 17.34375 -13.171875 L 6.875 -13.171875 L 6.875 -18.125 L 18.1875 -18.125 L 18.1875 -21.875 L 2.375 -21.875 L 2.375 0 L 18.71875 0 L 18.71875 -3.75 L 6.875 -3.75 Z M 6.875 -9.421875 "/>
</symbol>
<symbol overflow="visible" id="glyph0-13">
<path style="stroke:none;" d="M 9.390625 -15.875 L 6.90625 -15.875 L 6.90625 -17.453125 C 6.90625 -18.296875 7.265625 -18.71875 8.046875 -18.71875 C 8.4375 -18.71875 8.8125 -18.6875 9.234375 -18.625 L 9.234375 -21.78125 C 8.34375 -21.84375 7.46875 -21.875 6.84375 -21.875 C 4.046875 -21.875 2.703125 -20.546875 2.703125 -17.8125 L 2.703125 -15.875 L 0.421875 -15.875 L 0.421875 -13.078125 L 2.703125 -13.078125 L 2.703125 0 L 6.90625 0 L 6.90625 -13.078125 L 9.390625 -13.078125 Z M 19.375 -15.875 L 16.890625 -15.875 L 16.890625 -17.453125 C 16.890625 -18.296875 17.25 -18.71875 18.03125 -18.71875 C 18.421875 -18.71875 18.8125 -18.6875 19.234375 -18.625 L 19.234375 -21.78125 C 18.328125 -21.84375 17.453125 -21.875 16.828125 -21.875 C 14.046875 -21.875 12.6875 -20.546875 12.6875 -17.8125 L 12.6875 -15.875 L 10.40625 -15.875 L 10.40625 -13.078125 L 12.6875 -13.078125 L 12.6875 0 L 16.890625 0 L 16.890625 -13.078125 L 19.375 -13.078125 Z M 19.375 -15.875 "/>
</symbol>
<symbol overflow="visible" id="glyph0-14">
<path style="stroke:none;" d="M 16.234375 0 L 16.234375 -16.203125 L 12.03125 -16.203125 L 12.03125 -6.0625 C 12.03125 -4.140625 10.703125 -2.875 8.640625 -2.875 C 6.84375 -2.875 5.9375 -3.84375 5.9375 -5.796875 L 5.9375 -16.203125 L 1.734375 -16.203125 L 1.734375 -4.921875 C 1.734375 -1.3125 3.6875 0.6875 7.171875 0.6875 C 9.359375 0.6875 10.828125 -0.09375 12.03125 -1.921875 L 12.03125 0 Z M 16.234375 0 "/>
</symbol>
<symbol overflow="visible" id="glyph0-15">
<path style="stroke:none;" d="M 15.15625 -10.984375 C 15.09375 -14.40625 12.453125 -16.46875 8.09375 -16.46875 C 3.984375 -16.46875 1.4375 -14.40625 1.4375 -11.0625 C 1.4375 -9.984375 1.765625 -9.0625 2.34375 -8.4375 C 2.90625 -7.859375 3.421875 -7.59375 4.984375 -7.078125 L 9.984375 -5.515625 C 11.046875 -5.1875 11.40625 -4.859375 11.40625 -4.203125 C 11.40625 -3.203125 10.234375 -2.609375 8.28125 -2.609375 C 7.171875 -2.609375 6.328125 -2.796875 5.796875 -3.1875 C 5.34375 -3.515625 5.15625 -3.84375 4.984375 -4.703125 L 0.875 -4.703125 C 0.984375 -1.140625 3.59375 0.6875 8.515625 0.6875 C 10.765625 0.6875 12.484375 0.203125 13.6875 -0.75 C 14.875 -1.703125 15.59375 -3.203125 15.59375 -4.796875 C 15.59375 -6.90625 14.546875 -8.25 12.421875 -8.875 L 7.109375 -10.40625 C 5.9375 -10.765625 5.640625 -11.015625 5.640625 -11.671875 C 5.640625 -12.5625 6.59375 -13.171875 8.0625 -13.171875 C 10.078125 -13.171875 11.0625 -12.453125 11.09375 -10.984375 Z M 15.15625 -10.984375 "/>
</symbol>
<symbol overflow="visible" id="glyph1-0">
<path style="stroke:none;" d=""/>
</symbol>
<symbol overflow="visible" id="glyph1-1">
<path style="stroke:none;" d="M 17.0625 -19.25 L 14.734375 -19.25 L 14.734375 -3.515625 L 4.671875 -19.25 L 2 -19.25 L 2 0 L 4.328125 0 L 4.328125 -15.609375 L 14.28125 0 L 17.0625 0 Z M 17.0625 -19.25 "/>
</symbol>
<symbol overflow="visible" id="glyph1-2">
<path style="stroke:none;" d=""/>
</symbol>
<symbol overflow="visible" id="glyph1-3">
<path style="stroke:none;" d="M 11.5625 -9.984375 C 11.546875 -12.703125 9.75 -14.234375 6.546875 -14.234375 C 3.328125 -14.234375 1.234375 -12.5625 1.234375 -10.015625 C 1.234375 -7.84375 2.34375 -6.8125 5.625 -6.015625 L 7.6875 -5.515625 C 9.21875 -5.15625 9.828125 -4.59375 9.828125 -3.625 C 9.828125 -2.296875 8.53125 -1.421875 6.609375 -1.421875 C 5.40625 -1.421875 4.40625 -1.765625 3.859375 -2.34375 C 3.515625 -2.75 3.359375 -3.140625 3.21875 -4.125 L 0.890625 -4.125 C 1 -0.921875 2.796875 0.609375 6.421875 0.609375 C 9.90625 0.609375 12.125 -1.109375 12.125 -3.78125 C 12.125 -5.828125 10.953125 -6.96875 8.21875 -7.625 L 6.09375 -8.140625 C 4.296875 -8.5625 3.53125 -9.140625 3.53125 -10.109375 C 3.53125 -11.40625 4.671875 -12.203125 6.46875 -12.203125 C 8.234375 -12.203125 9.1875 -11.4375 9.25 -9.984375 Z M 11.5625 -9.984375 "/>
</symbol>
<symbol overflow="visible" id="glyph1-4">
<path style="stroke:none;" d="M 3.96875 -13.84375 L 1.765625 -13.84375 L 1.765625 0 L 3.96875 0 Z M 3.96875 -19.25 L 1.75 -19.25 L 1.75 -16.484375 L 3.96875 -16.484375 Z M 3.96875 -19.25 "/>
</symbol>
<symbol overflow="visible" id="glyph1-5">
<path style="stroke:none;" d="M 10.671875 -13.84375 L 10.671875 -11.828125 C 9.5625 -13.5 8.34375 -14.234375 6.609375 -14.234375 C 3.25 -14.234375 0.921875 -11.109375 0.921875 -6.6875 C 0.921875 -4.359375 1.484375 -2.671875 2.671875 -1.265625 C 3.703125 -0.046875 5.015625 0.609375 6.4375 0.609375 C 8.109375 0.609375 9.296875 -0.125 10.453125 -1.875 L 10.453125 -1.15625 C 10.453125 2.53125 9.421875 3.90625 6.6875 3.90625 C 4.8125 3.90625 3.828125 3.171875 3.625 1.578125 L 1.375 1.578125 C 1.578125 4.140625 3.625 5.75 6.625 5.75 C 8.65625 5.75 10.34375 5.09375 11.25 3.984375 C 12.3125 2.6875 12.703125 0.984375 12.703125 -2.265625 L 12.703125 -13.84375 Z M 6.8125 -12.203125 C 9.140625 -12.203125 10.453125 -10.25 10.453125 -6.734375 C 10.453125 -3.375 9.109375 -1.421875 6.8125 -1.421875 C 4.546875 -1.421875 3.21875 -3.40625 3.21875 -6.8125 C 3.21875 -10.1875 4.546875 -12.203125 6.8125 -12.203125 Z M 6.8125 -12.203125 "/>
</symbol>
<symbol overflow="visible" id="glyph1-6">
<path style="stroke:none;" d="M 1.84375 -13.84375 L 1.84375 0 L 4.0625 0 L 4.0625 -8.6875 C 4.0625 -10.6875 5.515625 -12.3125 7.3125 -12.3125 C 8.953125 -12.3125 9.875 -11.296875 9.875 -9.53125 L 9.875 0 L 12.09375 0 L 12.09375 -8.6875 C 12.09375 -10.6875 13.546875 -12.3125 15.34375 -12.3125 C 16.953125 -12.3125 17.90625 -11.28125 17.90625 -9.53125 L 17.90625 0 L 20.125 0 L 20.125 -10.375 C 20.125 -12.859375 18.703125 -14.234375 16.109375 -14.234375 C 14.265625 -14.234375 13.15625 -13.671875 11.859375 -12.125 C 11.03125 -13.59375 9.921875 -14.234375 8.140625 -14.234375 C 6.28125 -14.234375 5.046875 -13.546875 3.875 -11.890625 L 3.875 -13.84375 Z M 1.84375 -13.84375 "/>
</symbol>
<symbol overflow="visible" id="glyph1-7">
<path style="stroke:none;" d="M 7.1875 -14.234375 C 3.28125 -14.234375 0.953125 -11.453125 0.953125 -6.8125 C 0.953125 -2.140625 3.28125 0.609375 7.203125 0.609375 C 11.109375 0.609375 13.46875 -2.171875 13.46875 -6.703125 C 13.46875 -11.515625 11.203125 -14.234375 7.1875 -14.234375 Z M 7.203125 -12.203125 C 9.6875 -12.203125 11.171875 -10.171875 11.171875 -6.734375 C 11.171875 -3.453125 9.640625 -1.421875 7.203125 -1.421875 C 4.75 -1.421875 3.25 -3.453125 3.25 -6.8125 C 3.25 -10.171875 4.75 -12.203125 7.203125 -12.203125 Z M 7.203125 -12.203125 "/>
</symbol>
<symbol overflow="visible" id="glyph1-8">
<path style="stroke:none;" d="M 13.078125 -19.25 L 10.875 -19.25 L 10.875 -12.09375 C 9.953125 -13.5 8.46875 -14.234375 6.625 -14.234375 C 3.03125 -14.234375 0.6875 -11.359375 0.6875 -6.9375 C 0.6875 -2.265625 2.953125 0.609375 6.703125 0.609375 C 8.609375 0.609375 9.921875 -0.109375 11.109375 -1.828125 L 11.109375 0 L 13.078125 0 Z M 7 -12.171875 C 9.375 -12.171875 10.875 -10.09375 10.875 -6.765625 C 10.875 -3.5625 9.34375 -1.453125 7.03125 -1.453125 C 4.59375 -1.453125 2.984375 -3.59375 2.984375 -6.8125 C 2.984375 -10.03125 4.59375 -12.171875 7 -12.171875 Z M 7 -12.171875 "/>
</symbol>
<symbol overflow="visible" id="glyph1-9">
<path style="stroke:none;" d="M 12.734375 0 L 12.734375 -13.84375 L 10.53125 -13.84375 L 10.53125 -6 C 10.53125 -3.171875 9.0625 -1.328125 6.765625 -1.328125 C 5.015625 -1.328125 3.90625 -2.375 3.90625 -4.046875 L 3.90625 -13.84375 L 1.71875 -13.84375 L 1.71875 -3.171875 C 1.71875 -0.875 3.4375 0.609375 6.125 0.609375 C 8.15625 0.609375 9.453125 -0.109375 10.75 -1.921875 L 10.75 0 Z M 12.734375 0 "/>
</symbol>
<symbol overflow="visible" id="glyph1-10">
<path style="stroke:none;" d="M 6.703125 -13.84375 L 4.4375 -13.84375 L 4.4375 -17.640625 L 2.25 -17.640625 L 2.25 -13.84375 L 0.375 -13.84375 L 0.375 -12.046875 L 2.25 -12.046875 L 2.25 -1.578125 C 2.25 -0.15625 3.1875 0.609375 4.90625 0.609375 C 5.5 0.609375 5.96875 0.546875 6.703125 0.421875 L 6.703125 -1.421875 C 6.390625 -1.34375 6.09375 -1.328125 5.65625 -1.328125 C 4.703125 -1.328125 4.4375 -1.578125 4.4375 -2.5625 L 4.4375 -12.046875 L 6.703125 -12.046875 Z M 6.703125 -13.84375 "/>
</symbol>
<symbol overflow="visible" id="glyph1-11">
<path style="stroke:none;" d="M 1.421875 5.75 L 3.640625 5.75 L 3.640625 -1.453125 C 4.8125 -0.03125 6.09375 0.609375 7.890625 0.609375 C 11.484375 0.609375 13.8125 -2.265625 13.8125 -6.6875 C 13.8125 -11.328125 11.546875 -14.234375 7.875 -14.234375 C 6 -14.234375 4.484375 -13.390625 3.453125 -11.75 L 3.453125 -13.84375 L 1.421875 -13.84375 Z M 7.5 -12.171875 C 9.921875 -12.171875 11.515625 -10.03125 11.515625 -6.734375 C 11.515625 -3.59375 9.90625 -1.453125 7.5 -1.453125 C 5.15625 -1.453125 3.640625 -3.5625 3.640625 -6.8125 C 3.640625 -10.0625 5.15625 -12.171875 7.5 -12.171875 Z M 7.5 -12.171875 "/>
</symbol>
<symbol overflow="visible" id="glyph2-0">
<path style="stroke:none;" d=""/>
</symbol>
<symbol overflow="visible" id="glyph2-1">
<path style="stroke:none;" d="M -19.25 -5.125 L -19.25 -2.640625 L 0 -2.640625 L 0 -5.125 Z M -19.25 -5.125 "/>
</symbol>
<symbol overflow="visible" id="glyph2-2">
<path style="stroke:none;" d="M -13.84375 -1.84375 L 0 -1.84375 L 0 -4.0625 L -7.625 -4.0625 C -10.453125 -4.0625 -12.3125 -5.546875 -12.3125 -7.8125 C -12.3125 -9.5625 -11.25 -10.671875 -9.578125 -10.671875 L 0 -10.671875 L 0 -12.859375 L -10.453125 -12.859375 C -12.75 -12.859375 -14.234375 -11.140625 -14.234375 -8.46875 C -14.234375 -6.421875 -13.4375 -5.09375 -11.515625 -3.875 L -13.84375 -3.875 Z M -13.84375 -1.84375 "/>
</symbol>
<symbol overflow="visible" id="glyph2-3">
<path style="stroke:none;" d="M -13.84375 -6.8125 L -13.84375 -4.515625 L -16 -4.515625 C -16.921875 -4.515625 -17.40625 -5.015625 -17.40625 -6.046875 C -17.40625 -6.234375 -17.40625 -6.3125 -17.375 -6.8125 L -19.203125 -6.8125 C -19.296875 -6.3125 -19.328125 -6.015625 -19.328125 -5.578125 C -19.328125 -3.53125 -18.171875 -2.328125 -16.1875 -2.328125 L -13.84375 -2.328125 L -13.84375 -0.46875 L -12.046875 -0.46875 L -12.046875 -2.328125 L 0 -2.328125 L 0 -4.515625 L -12.046875 -4.515625 L -12.046875 -6.8125 Z M -13.84375 -6.8125 "/>
</symbol>
<symbol overflow="visible" id="glyph2-4">
<path style="stroke:none;" d="M -6.171875 -13.546875 C -8.296875 -13.546875 -9.5625 -13.390625 -10.59375 -12.984375 C -12.859375 -12.09375 -14.234375 -9.984375 -14.234375 -7.390625 C -14.234375 -3.53125 -11.296875 -1.0625 -6.734375 -1.0625 C -2.171875 -1.0625 0.609375 -3.4375 0.609375 -7.34375 C 0.609375 -10.515625 -1.1875 -12.703125 -4.203125 -13.25 L -4.203125 -11.03125 C -2.375 -10.4375 -1.421875 -9.1875 -1.421875 -7.421875 C -1.421875 -6.015625 -2.0625 -4.828125 -3.21875 -4.09375 C -4.015625 -3.5625 -4.8125 -3.375 -6.171875 -3.359375 Z M -7.96875 -3.40625 C -10.53125 -3.59375 -12.203125 -5.15625 -12.203125 -7.375 C -12.203125 -9.609375 -10.453125 -11.171875 -7.96875 -11.171875 Z M -7.96875 -3.40625 "/>
</symbol>
<symbol overflow="visible" id="glyph2-5">
<path style="stroke:none;" d="M -13.84375 -1.828125 L 0 -1.828125 L 0 -4.046875 L -7.1875 -4.046875 C -10.515625 -4.0625 -11.984375 -5.4375 -11.90625 -8.46875 L -14.15625 -8.46875 C -14.203125 -8.109375 -14.234375 -7.890625 -14.234375 -7.625 C -14.234375 -6.203125 -13.390625 -5.125 -11.328125 -3.859375 L -13.84375 -3.859375 Z M -13.84375 -1.828125 "/>
</symbol>
<symbol overflow="visible" id="glyph2-6">
<path style="stroke:none;" d="M -19.25 -13.078125 L -19.25 -10.875 L -12.09375 -10.875 C -13.5 -9.953125 -14.234375 -8.46875 -14.234375 -6.625 C -14.234375 -3.03125 -11.359375 -0.6875 -6.9375 -0.6875 C -2.265625 -0.6875 0.609375 -2.953125 0.609375 -6.703125 C 0.609375 -8.609375 -0.109375 -9.921875 -1.828125 -11.109375 L 0 -11.109375 L 0 -13.078125 Z M -12.171875 -7 C -12.171875 -9.375 -10.09375 -10.875 -6.765625 -10.875 C -3.5625 -10.875 -1.453125 -9.34375 -1.453125 -7.03125 C -1.453125 -4.59375 -3.59375 -2.984375 -6.8125 -2.984375 C -10.03125 -2.984375 -12.171875 -4.59375 -12.171875 -7 Z M -12.171875 -7 "/>
</symbol>
<symbol overflow="visible" id="glyph2-7">
<path style="stroke:none;" d=""/>
</symbol>
<symbol overflow="visible" id="glyph2-8">
<path style="stroke:none;" d="M 5.75 -1.421875 L 5.75 -3.640625 L -1.453125 -3.640625 C -0.03125 -4.8125 0.609375 -6.09375 0.609375 -7.890625 C 0.609375 -11.484375 -2.265625 -13.8125 -6.6875 -13.8125 C -11.328125 -13.8125 -14.234375 -11.546875 -14.234375 -7.875 C -14.234375 -6 -13.390625 -4.484375 -11.75 -3.453125 L -13.84375 -3.453125 L -13.84375 -1.421875 Z M -12.171875 -7.5 C -12.171875 -9.921875 -10.03125 -11.515625 -6.734375 -11.515625 C -3.59375 -11.515625 -1.453125 -9.90625 -1.453125 -7.5 C -1.453125 -5.15625 -3.5625 -3.640625 -6.8125 -3.640625 C -10.0625 -3.640625 -12.171875 -5.15625 -12.171875 -7.5 Z M -12.171875 -7.5 "/>
</symbol>
<symbol overflow="visible" id="glyph2-9">
<path style="stroke:none;" d="M -14.234375 -7.1875 C -14.234375 -3.28125 -11.453125 -0.953125 -6.8125 -0.953125 C -2.140625 -0.953125 0.609375 -3.28125 0.609375 -7.203125 C 0.609375 -11.109375 -2.171875 -13.46875 -6.703125 -13.46875 C -11.515625 -13.46875 -14.234375 -11.203125 -14.234375 -7.1875 Z M -12.203125 -7.203125 C -12.203125 -9.6875 -10.171875 -11.171875 -6.734375 -11.171875 C -3.453125 -11.171875 -1.421875 -9.640625 -1.421875 -7.203125 C -1.421875 -4.75 -3.453125 -3.25 -6.8125 -3.25 C -10.171875 -3.25 -12.203125 -4.75 -12.203125 -7.203125 Z M -12.203125 -7.203125 "/>
</symbol>
<symbol overflow="visible" id="glyph2-10">
<path style="stroke:none;" d="M -19.25 -1.421875 L 0 -1.421875 L 0 -3.40625 L -1.765625 -3.40625 C -0.15625 -4.46875 0.609375 -5.859375 0.609375 -7.796875 C 0.609375 -11.4375 -2.375 -13.8125 -6.96875 -13.8125 C -11.453125 -13.8125 -14.234375 -11.5625 -14.234375 -7.890625 C -14.234375 -6 -13.515625 -4.640625 -11.96875 -3.625 L -19.25 -3.625 Z M -12.171875 -7.46875 C -12.171875 -9.921875 -10.03125 -11.515625 -6.734375 -11.515625 C -3.59375 -11.515625 -1.453125 -9.875 -1.453125 -7.46875 C -1.453125 -5.125 -3.5625 -3.625 -6.8125 -3.625 C -10.0625 -3.625 -12.171875 -5.125 -12.171875 -7.46875 Z M -12.171875 -7.46875 "/>
</symbol>
<symbol overflow="visible" id="glyph2-11">
<path style="stroke:none;" d="M -1.296875 -14.125 C -1.234375 -13.890625 -1.234375 -13.78125 -1.234375 -13.65625 C -1.234375 -12.890625 -1.640625 -12.46875 -2.328125 -12.46875 L -10.453125 -12.46875 C -12.90625 -12.46875 -14.234375 -10.671875 -14.234375 -7.265625 C -14.234375 -5.234375 -13.65625 -3.625 -12.625 -2.671875 C -11.90625 -2.03125 -11.109375 -1.765625 -9.75 -1.71875 L -9.75 -3.9375 C -11.4375 -4.125 -12.203125 -5.125 -12.203125 -7.1875 C -12.203125 -9.1875 -11.453125 -10.265625 -10.140625 -10.265625 L -9.5625 -10.265625 C -8.609375 -10.25 -8.265625 -9.765625 -8.03125 -7.96875 C -7.625 -4.859375 -7.53125 -4.390625 -7.1875 -3.53125 C -6.5 -1.921875 -5.28125 -1.109375 -3.484375 -1.109375 C -0.984375 -1.109375 0.609375 -2.859375 0.609375 -5.65625 C 0.609375 -7.390625 0 -8.796875 -1.421875 -10.34375 C 0 -10.515625 0.609375 -11.203125 0.609375 -12.625 C 0.609375 -13.09375 0.546875 -13.390625 0.375 -14.125 Z M -4.359375 -10.265625 C -3.625 -10.265625 -3.171875 -10.0625 -2.5625 -9.40625 C -1.75 -8.5 -1.328125 -7.421875 -1.328125 -6.125 C -1.328125 -4.40625 -2.140625 -3.40625 -3.53125 -3.40625 C -4.984375 -3.40625 -5.734375 -4.359375 -6.078125 -6.734375 C -6.390625 -9.078125 -6.5 -9.53125 -6.84375 -10.265625 Z M -4.359375 -10.265625 "/>
</symbol>
<symbol overflow="visible" id="glyph2-12">
<path style="stroke:none;" d="M -13.84375 -3.96875 L -13.84375 -1.765625 L 0 -1.765625 L 0 -3.96875 Z M -19.25 -3.96875 L -19.25 -1.75 L -16.484375 -1.75 L -16.484375 -3.96875 Z M -19.25 -3.96875 "/>
</symbol>
<symbol overflow="visible" id="glyph2-13">
<path style="stroke:none;" d="M -19.25 -4.015625 L -19.25 -1.796875 L 0 -1.796875 L 0 -4.015625 Z M -19.25 -4.015625 "/>
</symbol>
<symbol overflow="visible" id="glyph2-14">
<path style="stroke:none;" d="M -13.84375 -6.703125 L -13.84375 -4.4375 L -17.640625 -4.4375 L -17.640625 -2.25 L -13.84375 -2.25 L -13.84375 -0.375 L -12.046875 -0.375 L -12.046875 -2.25 L -1.578125 -2.25 C -0.15625 -2.25 0.609375 -3.1875 0.609375 -4.90625 C 0.609375 -5.5 0.546875 -5.96875 0.421875 -6.703125 L -1.421875 -6.703125 C -1.34375 -6.390625 -1.328125 -6.09375 -1.328125 -5.65625 C -1.328125 -4.703125 -1.578125 -4.4375 -2.5625 -4.4375 L -12.046875 -4.4375 L -12.046875 -6.703125 Z M -13.84375 -6.703125 "/>
</symbol>
<symbol overflow="visible" id="glyph2-15">
<path style="stroke:none;" d="M -13.84375 -10.25 L -3.0625 -6.421875 L -13.84375 -2.875 L -13.84375 -0.53125 L 0.046875 -5.203125 L 2.25 -4.359375 C 3.21875 -3.984375 3.59375 -3.515625 3.59375 -2.59375 C 3.59375 -2.21875 3.53125 -1.90625 3.4375 -1.421875 L 5.40625 -1.421875 C 5.65625 -1.875 5.75 -2.328125 5.75 -2.90625 C 5.75 -3.625 5.515625 -4.390625 5.09375 -4.96875 C 4.59375 -5.65625 4.015625 -6.046875 2.90625 -6.46875 L -13.84375 -12.625 Z M -13.84375 -10.25 "/>
</symbol>
<symbol overflow="visible" id="glyph3-0">
<path style="stroke:none;" d=""/>
</symbol>
<symbol overflow="visible" id="glyph3-1">
<path style="stroke:none;" d="M 5.9375 -15.609375 C 4.515625 -15.609375 3.21875 -14.96875 2.421875 -13.90625 C 1.421875 -12.53125 0.921875 -10.453125 0.921875 -7.5625 C 0.921875 -2.28125 2.65625 0.5 5.9375 0.5 C 9.171875 0.5 10.953125 -2.28125 10.953125 -7.421875 C 10.953125 -10.453125 10.46875 -12.484375 9.453125 -13.90625 C 8.65625 -14.984375 7.390625 -15.609375 5.9375 -15.609375 Z M 5.9375 -13.921875 C 7.984375 -13.921875 9 -11.828125 9 -7.59375 C 9 -3.15625 8.015625 -1.078125 5.890625 -1.078125 C 3.890625 -1.078125 2.875 -3.234375 2.875 -7.53125 C 2.875 -11.828125 3.890625 -13.921875 5.9375 -13.921875 Z M 5.9375 -13.921875 "/>
</symbol>
<symbol overflow="visible" id="glyph3-2">
<path style="stroke:none;" d="M 4.125 -2.25 L 1.875 -2.25 L 1.875 0 L 4.125 0 Z M 4.125 -2.25 "/>
</symbol>
<symbol overflow="visible" id="glyph3-3">
<path style="stroke:none;" d="M 10.921875 -1.875 L 2.875 -1.875 C 3.0625 -3.171875 3.75 -4 5.640625 -5.140625 L 7.796875 -6.34375 C 9.9375 -7.53125 11.03125 -9.140625 11.03125 -11.0625 C 11.03125 -12.359375 10.515625 -13.5625 9.609375 -14.40625 C 8.703125 -15.21875 7.578125 -15.609375 6.125 -15.609375 C 4.1875 -15.609375 2.75 -14.921875 1.90625 -13.578125 C 1.359375 -12.765625 1.125 -11.796875 1.078125 -10.21875 L 2.984375 -10.21875 C 3.046875 -11.265625 3.171875 -11.890625 3.4375 -12.421875 C 3.9375 -13.359375 4.921875 -13.953125 6.0625 -13.953125 C 7.796875 -13.953125 9.09375 -12.703125 9.09375 -11.015625 C 9.09375 -9.765625 8.375 -8.6875 7.015625 -7.90625 L 5.03125 -6.734375 C 1.828125 -4.90625 0.90625 -3.4375 0.734375 -0.015625 L 10.921875 -0.015625 Z M 10.921875 -1.875 "/>
</symbol>
<symbol overflow="visible" id="glyph3-4">
<path style="stroke:none;" d="M 7.0625 -3.78125 L 7.0625 0 L 8.96875 0 L 8.96875 -3.78125 L 11.234375 -3.78125 L 11.234375 -5.484375 L 8.96875 -5.484375 L 8.96875 -15.609375 L 7.5625 -15.609375 L 0.609375 -5.78125 L 0.609375 -3.78125 Z M 7.0625 -5.484375 L 2.265625 -5.484375 L 7.0625 -12.375 Z M 7.0625 -5.484375 "/>
</symbol>
<symbol overflow="visible" id="glyph3-5">
<path style="stroke:none;" d="M 10.75 -11.546875 C 10.390625 -14.09375 8.75 -15.609375 6.40625 -15.609375 C 4.734375 -15.609375 3.21875 -14.796875 2.3125 -13.390625 C 1.34375 -11.859375 0.921875 -9.953125 0.921875 -7.125 C 0.921875 -4.484375 1.296875 -2.828125 2.21875 -1.453125 C 3.046875 -0.171875 4.390625 0.5 6.0625 0.5 C 8.984375 0.5 11.078125 -1.6875 11.078125 -4.734375 C 11.078125 -7.59375 9.140625 -9.625 6.390625 -9.625 C 4.875 -9.625 3.6875 -9.0625 2.875 -7.921875 C 2.890625 -11.796875 4.109375 -13.921875 6.28125 -13.921875 C 7.625 -13.921875 8.546875 -13.0625 8.859375 -11.546875 Z M 6.15625 -7.953125 C 7.984375 -7.953125 9.140625 -6.65625 9.140625 -4.578125 C 9.140625 -2.609375 7.84375 -1.1875 6.09375 -1.1875 C 4.3125 -1.1875 2.984375 -2.671875 2.984375 -4.671875 C 2.984375 -6.609375 4.28125 -7.953125 6.15625 -7.953125 Z M 6.15625 -7.953125 "/>
</symbol>
<symbol overflow="visible" id="glyph3-6">
<path style="stroke:none;" d="M 8.4375 -8.234375 C 10.046875 -9.203125 10.53125 -9.96875 10.53125 -11.4375 C 10.53125 -13.90625 8.65625 -15.609375 5.9375 -15.609375 C 3.234375 -15.609375 1.34375 -13.90625 1.34375 -11.46875 C 1.34375 -9.96875 1.828125 -9.21875 3.40625 -8.234375 C 1.65625 -7.34375 0.796875 -6.0625 0.796875 -4.34375 C 0.796875 -1.484375 2.890625 0.5 5.9375 0.5 C 8.96875 0.5 11.078125 -1.484375 11.078125 -4.34375 C 11.078125 -6.0625 10.21875 -7.34375 8.4375 -8.234375 Z M 5.9375 -13.921875 C 7.5625 -13.921875 8.59375 -12.953125 8.59375 -11.40625 C 8.59375 -9.9375 7.53125 -8.96875 5.9375 -8.96875 C 4.3125 -8.96875 3.28125 -9.9375 3.28125 -11.4375 C 3.28125 -12.953125 4.3125 -13.921875 5.9375 -13.921875 Z M 5.9375 -7.359375 C 7.84375 -7.359375 9.140625 -6.109375 9.140625 -4.296875 C 9.140625 -2.421875 7.859375 -1.1875 5.890625 -1.1875 C 4.03125 -1.1875 2.75 -2.46875 2.75 -4.28125 C 2.75 -6.125 4.015625 -7.359375 5.9375 -7.359375 Z M 5.9375 -7.359375 "/>
</symbol>
<symbol overflow="visible" id="glyph3-7">
<path style="stroke:none;" d="M 5.59375 -11.125 L 5.59375 0 L 7.5 0 L 7.5 -15.609375 L 6.234375 -15.609375 C 5.578125 -13.21875 5.140625 -12.890625 2.203125 -12.5 L 2.203125 -11.125 Z M 5.59375 -11.125 "/>
</symbol>
<symbol overflow="visible" id="glyph4-0">
<path style="stroke:none;" d=""/>
</symbol>
<symbol overflow="visible" id="glyph4-1">
<path style="stroke:none;" d="M -15.609375 -5.9375 C -15.609375 -4.515625 -14.96875 -3.21875 -13.90625 -2.421875 C -12.53125 -1.421875 -10.453125 -0.921875 -7.5625 -0.921875 C -2.28125 -0.921875 0.5 -2.65625 0.5 -5.9375 C 0.5 -9.171875 -2.28125 -10.953125 -7.421875 -10.953125 C -10.453125 -10.953125 -12.484375 -10.46875 -13.90625 -9.453125 C -14.984375 -8.65625 -15.609375 -7.390625 -15.609375 -5.9375 Z M -13.921875 -5.9375 C -13.921875 -7.984375 -11.828125 -9 -7.59375 -9 C -3.15625 -9 -1.078125 -8.015625 -1.078125 -5.890625 C -1.078125 -3.890625 -3.234375 -2.875 -7.53125 -2.875 C -11.828125 -2.875 -13.921875 -3.890625 -13.921875 -5.9375 Z M -13.921875 -5.9375 "/>
</symbol>
<symbol overflow="visible" id="glyph4-2">
<path style="stroke:none;" d="M -2.25 -4.125 L -2.25 -1.875 L 0 -1.875 L 0 -4.125 Z M -2.25 -4.125 "/>
</symbol>
<symbol overflow="visible" id="glyph4-3">
<path style="stroke:none;" d="M -1.875 -10.921875 L -1.875 -2.875 C -3.171875 -3.0625 -4 -3.75 -5.140625 -5.640625 L -6.34375 -7.796875 C -7.53125 -9.9375 -9.140625 -11.03125 -11.0625 -11.03125 C -12.359375 -11.03125 -13.5625 -10.515625 -14.40625 -9.609375 C -15.21875 -8.703125 -15.609375 -7.578125 -15.609375 -6.125 C -15.609375 -4.1875 -14.921875 -2.75 -13.578125 -1.90625 C -12.765625 -1.359375 -11.796875 -1.125 -10.21875 -1.078125 L -10.21875 -2.984375 C -11.265625 -3.046875 -11.890625 -3.171875 -12.421875 -3.4375 C -13.359375 -3.9375 -13.953125 -4.921875 -13.953125 -6.0625 C -13.953125 -7.796875 -12.703125 -9.09375 -11.015625 -9.09375 C -9.765625 -9.09375 -8.6875 -8.375 -7.90625 -7.015625 L -6.734375 -5.03125 C -4.90625 -1.828125 -3.4375 -0.90625 -0.015625 -0.734375 L -0.015625 -10.921875 Z M -1.875 -10.921875 "/>
</symbol>
<symbol overflow="visible" id="glyph4-4">
<path style="stroke:none;" d="M -3.78125 -7.0625 L 0 -7.0625 L 0 -8.96875 L -3.78125 -8.96875 L -3.78125 -11.234375 L -5.484375 -11.234375 L -5.484375 -8.96875 L -15.609375 -8.96875 L -15.609375 -7.5625 L -5.78125 -0.609375 L -3.78125 -0.609375 Z M -5.484375 -7.0625 L -5.484375 -2.265625 L -12.375 -7.0625 Z M -5.484375 -7.0625 "/>
</symbol>
<symbol overflow="visible" id="glyph4-5">
<path style="stroke:none;" d="M -11.546875 -10.75 C -14.09375 -10.390625 -15.609375 -8.75 -15.609375 -6.40625 C -15.609375 -4.734375 -14.796875 -3.21875 -13.390625 -2.3125 C -11.859375 -1.34375 -9.953125 -0.921875 -7.125 -0.921875 C -4.484375 -0.921875 -2.828125 -1.296875 -1.453125 -2.21875 C -0.171875 -3.046875 0.5 -4.390625 0.5 -6.0625 C 0.5 -8.984375 -1.6875 -11.078125 -4.734375 -11.078125 C -7.59375 -11.078125 -9.625 -9.140625 -9.625 -6.390625 C -9.625 -4.875 -9.0625 -3.6875 -7.921875 -2.875 C -11.796875 -2.890625 -13.921875 -4.109375 -13.921875 -6.28125 C -13.921875 -7.625 -13.0625 -8.546875 -11.546875 -8.859375 Z M -7.953125 -6.15625 C -7.953125 -7.984375 -6.65625 -9.140625 -4.578125 -9.140625 C -2.609375 -9.140625 -1.1875 -7.84375 -1.1875 -6.09375 C -1.1875 -4.3125 -2.671875 -2.984375 -4.671875 -2.984375 C -6.609375 -2.984375 -7.953125 -4.28125 -7.953125 -6.15625 Z M -7.953125 -6.15625 "/>
</symbol>
<symbol overflow="visible" id="glyph4-6">
<path style="stroke:none;" d="M -8.234375 -8.4375 C -9.203125 -10.046875 -9.96875 -10.53125 -11.4375 -10.53125 C -13.90625 -10.53125 -15.609375 -8.65625 -15.609375 -5.9375 C -15.609375 -3.234375 -13.90625 -1.34375 -11.46875 -1.34375 C -9.96875 -1.34375 -9.21875 -1.828125 -8.234375 -3.40625 C -7.34375 -1.65625 -6.0625 -0.796875 -4.34375 -0.796875 C -1.484375 -0.796875 0.5 -2.890625 0.5 -5.9375 C 0.5 -8.96875 -1.484375 -11.078125 -4.34375 -11.078125 C -6.0625 -11.078125 -7.34375 -10.21875 -8.234375 -8.4375 Z M -13.921875 -5.9375 C -13.921875 -7.5625 -12.953125 -8.59375 -11.40625 -8.59375 C -9.9375 -8.59375 -8.96875 -7.53125 -8.96875 -5.9375 C -8.96875 -4.3125 -9.9375 -3.28125 -11.4375 -3.28125 C -12.953125 -3.28125 -13.921875 -4.3125 -13.921875 -5.9375 Z M -7.359375 -5.9375 C -7.359375 -7.84375 -6.109375 -9.140625 -4.296875 -9.140625 C -2.421875 -9.140625 -1.1875 -7.859375 -1.1875 -5.890625 C -1.1875 -4.03125 -2.46875 -2.75 -4.28125 -2.75 C -6.125 -2.75 -7.359375 -4.015625 -7.359375 -5.9375 Z M -7.359375 -5.9375 "/>
</symbol>
<symbol overflow="visible" id="glyph4-7">
<path style="stroke:none;" d="M -11.125 -5.59375 L 0 -5.59375 L 0 -7.5 L -15.609375 -7.5 L -15.609375 -6.234375 C -13.21875 -5.578125 -12.890625 -5.140625 -12.5 -2.203125 L -11.125 -2.203125 Z M -11.125 -5.59375 "/>
</symbol>
</g>
<clipPath id="clip1">
  <path d="M 100.800781 611 L 676.800781 611 L 676.800781 614 L 100.800781 614 Z M 100.800781 611 "/>
</clipPath>
<clipPath id="clip2">
  <path d="M 100.800781 507 L 676.800781 507 L 676.800781 510 L 100.800781 510 Z M 100.800781 507 "/>
</clipPath>
<clipPath id="clip3">
  <path d="M 100.800781 403 L 676.800781 403 L 676.800781 406 L 100.800781 406 Z M 100.800781 403 "/>
</clipPath>
<clipPath id="clip4">
  <path d="M 100.800781 299 L 676.800781 299 L 676.800781 302 L 100.800781 302 Z M 100.800781 299 "/>
</clipPath>
<clipPath id="clip5">
  <path d="M 100.800781 195 L 676.800781 195 L 676.800781 198 L 100.800781 198 Z M 100.800781 195 "/>
</clipPath>
<clipPath id="clip6">
  <path d="M 100.800781 91 L 676.800781 91 L 676.800781 94 L 100.800781 94 Z M 100.800781 91 "/>
</clipPath>
<clipPath id="clip7">
  <path d="M 121 72 L 124 72 L 124 633.601562 L 121 633.601562 Z M 121 72 "/>
</clipPath>
<clipPath id="clip8">
  <path d="M 227 72 L 230 72 L 230 633.601562 L 227 633.601562 Z M 227 72 "/>
</clipPath>
<clipPath id="clip9">
  <path d="M 334 72 L 337 72 L 337 633.601562 L 334 633.601562 Z M 334 72 "/>
</clipPath>
<clipPath id="clip10">
  <path d="M 441 72 L 444 72 L 444 633.601562 L 441 633.601562 Z M 441 72 "/>
</clipPath>
<clipPath id="clip11">
  <path d="M 547 72 L 550 72 L 550 633.601562 L 547 633.601562 Z M 547 72 "/>
</clipPath>
<clipPath id="clip12">
  <path d="M 654 72 L 657 72 L 657 633.601562 L 654 633.601562 Z M 654 72 "/>
</clipPath>
<clipPath id="clip13">
  <path d="M 265 72 L 268 72 L 268 633.601562 L 265 633.601562 Z M 265 72 "/>
</clipPath>
</defs>
<g id="surface175">
<rect x="0" y="0" width="720" height="720" style="fill:rgb(100%,100%,100%);fill-opacity:1;stroke:none;"/>
<path style="fill:none;stroke-width:3.75;stroke-linecap:round;stroke-linejoin:round;stroke:rgb(0%,0%,0%);stroke-opacity:1;stroke-miterlimit:10;" d="M 125.703125 586.171875 L 125.992188 585.960938 L 126.300781 585.667969 L 126.636719 585.285156 L 127 584.792969 L 127.390625 584.3125 L 127.816406 583.519531 L 128.269531 582.941406 L 128.761719 582.5625 L 129.296875 581.992188 L 129.867188 581.308594 L 130.488281 580.566406 L 131.15625 579.761719 L 131.875 578.886719 L 132.648438 577.941406 L 133.488281 576.929688 L 134.386719 575.859375 L 135.359375 574.707031 L 136.40625 573.4375 L 137.53125 572.191406 L 138.742188 570.835938 L 140.046875 569.425781 L 141.449219 567.988281 L 142.960938 566.503906 L 144.582031 564.972656 L 146.320312 563.386719 L 148.191406 561.765625 L 150.195312 560.082031 L 152.347656 558.324219 L 154.652344 556.476562 L 157.121094 554.535156 L 159.765625 552.480469 L 162.589844 550.296875 L 165.609375 547.960938 L 168.835938 545.4375 L 172.273438 542.761719 L 175.933594 539.882812 L 179.835938 536.785156 L 183.980469 533.453125 L 188.378906 530 L 193.046875 526.320312 L 197.992188 522.320312 L 203.21875 517.988281 L 208.734375 513.375 L 214.554688 508.460938 L 220.675781 503.246094 L 227.105469 497.738281 L 233.851562 491.9375 L 240.90625 485.871094 L 248.273438 479.527344 L 255.953125 472.835938 L 263.9375 465.757812 L 272.214844 458.257812 L 280.785156 450.292969 L 289.628906 441.875 L 298.730469 433.058594 L 308.078125 423.691406 L 317.648438 413.78125 L 327.417969 403.390625 L 337.367188 392.558594 L 347.46875 381.390625 L 357.691406 370.027344 L 368.007812 358.640625 L 378.386719 347.390625 L 388.800781 336.4375 L 399.210938 325.921875 L 409.589844 315.960938 L 419.90625 306.617188 L 430.132812 297.910156 L 440.230469 289.859375 L 450.179688 282.414062 L 459.953125 275.511719 L 469.523438 269.070312 L 478.871094 263.019531 L 487.972656 257.28125 L 496.816406 251.824219 L 505.382812 246.570312 L 513.664062 241.566406 L 521.648438 236.824219 L 529.324219 232.375 L 536.691406 228.246094 L 543.75 224.445312 L 550.492188 220.96875 L 556.925781 217.808594 L 563.046875 214.964844 L 568.863281 212.425781 L 574.382812 210.195312 L 579.609375 208.269531 L 584.550781 206.632812 L 589.21875 205.203125 L 593.621094 203.972656 L 597.765625 202.925781 L 601.664062 202.046875 L 605.328125 201.328125 L 608.765625 200.757812 L 611.988281 200.34375 L 615.007812 200.101562 L 617.835938 200.027344 L 620.476562 200.105469 L 622.945312 200.3125 L 625.253906 200.644531 L 627.402344 201.078125 L 629.410156 201.503906 L 631.277344 202.027344 L 633.019531 202.632812 L 634.640625 203.359375 L 636.148438 204.175781 L 637.550781 205.058594 L 638.855469 206.066406 L 640.070312 207.332031 L 641.195312 208.5 L 642.242188 209.914062 L 643.210938 211.558594 L 644.113281 213.445312 L 644.949219 215.710938 L 645.726562 218.089844 L 646.445312 220.828125 L 647.113281 223.847656 L 647.730469 227.125 L 648.304688 230.632812 L 648.835938 234.351562 L 649.328125 238.234375 L 649.785156 242.253906 L 650.207031 246.304688 L 650.601562 250.367188 L 650.960938 254.457031 L 651.296875 258.59375 L 651.609375 262.625 L 651.898438 266.566406 "/>
<g style="fill:rgb(0%,0%,0%);fill-opacity:1;">
  <use xlink:href="#glyph0-1" x="242.300781" y="46.870117"/>
  <use xlink:href="#glyph0-2" x="264.300781" y="46.870117"/>
  <use xlink:href="#glyph0-3" x="281.300781" y="46.870117"/>
  <use xlink:href="#glyph0-4" x="289.300781" y="46.870117"/>
  <use xlink:href="#glyph0-5" x="297.300781" y="46.870117"/>
  <use xlink:href="#glyph0-6" x="315.300781" y="46.870117"/>
  <use xlink:href="#glyph0-2" x="327.300781" y="46.870117"/>
  <use xlink:href="#glyph0-7" x="344.300781" y="46.870117"/>
  <use xlink:href="#glyph0-4" x="354.300781" y="46.870117"/>
  <use xlink:href="#glyph0-8" x="362.300781" y="46.870117"/>
  <use xlink:href="#glyph0-9" x="380.300781" y="46.870117"/>
  <use xlink:href="#glyph0-10" x="398.300781" y="46.870117"/>
  <use xlink:href="#glyph0-11" x="408.300781" y="46.870117"/>
  <use xlink:href="#glyph0-12" x="416.300781" y="46.870117"/>
  <use xlink:href="#glyph0-13" x="436.300781" y="46.870117"/>
  <use xlink:href="#glyph0-14" x="456.300781" y="46.870117"/>
  <use xlink:href="#glyph0-15" x="474.300781" y="46.870117"/>
  <use xlink:href="#glyph0-4" x="491.300781" y="46.870117"/>
  <use xlink:href="#glyph0-8" x="499.300781" y="46.870117"/>
  <use xlink:href="#glyph0-9" x="517.300781" y="46.870117"/>
</g>
<g style="fill:rgb(0%,0%,0%);fill-opacity:1;">
  <use xlink:href="#glyph1-1" x="279.800781" y="687.56543"/>
  <use xlink:href="#glyph1-1" x="298.800781" y="687.56543"/>
  <use xlink:href="#glyph1-2" x="317.800781" y="687.56543"/>
  <use xlink:href="#glyph1-3" x="324.800781" y="687.56543"/>
  <use xlink:href="#glyph1-4" x="337.800781" y="687.56543"/>
  <use xlink:href="#glyph1-5" x="343.800781" y="687.56543"/>
  <use xlink:href="#glyph1-6" x="358.800781" y="687.56543"/>
  <use xlink:href="#glyph1-7" x="380.800781" y="687.56543"/>
  <use xlink:href="#glyph1-4" x="395.800781" y="687.56543"/>
  <use xlink:href="#glyph1-8" x="401.800781" y="687.56543"/>
  <use xlink:href="#glyph1-2" x="416.800781" y="687.56543"/>
  <use xlink:href="#glyph1-7" x="423.800781" y="687.56543"/>
  <use xlink:href="#glyph1-9" x="438.800781" y="687.56543"/>
  <use xlink:href="#glyph1-10" x="453.800781" y="687.56543"/>
  <use xlink:href="#glyph1-11" x="460.800781" y="687.56543"/>
  <use xlink:href="#glyph1-9" x="475.800781" y="687.56543"/>
  <use xlink:href="#glyph1-10" x="490.800781" y="687.56543"/>
</g>
<g style="fill:rgb(0%,0%,0%);fill-opacity:1;">
  <use xlink:href="#glyph2-1" x="53.963867" y="463.800781"/>
  <use xlink:href="#glyph2-2" x="53.963867" y="456.800781"/>
  <use xlink:href="#glyph2-3" x="53.963867" y="441.800781"/>
  <use xlink:href="#glyph2-4" x="53.963867" y="434.800781"/>
  <use xlink:href="#glyph2-5" x="53.963867" y="419.800781"/>
  <use xlink:href="#glyph2-5" x="53.963867" y="410.800781"/>
  <use xlink:href="#glyph2-4" x="53.963867" y="401.800781"/>
  <use xlink:href="#glyph2-6" x="53.963867" y="386.800781"/>
  <use xlink:href="#glyph2-7" x="53.963867" y="371.800781"/>
  <use xlink:href="#glyph2-8" x="53.963867" y="364.800781"/>
  <use xlink:href="#glyph2-5" x="53.963867" y="349.800781"/>
  <use xlink:href="#glyph2-9" x="53.963867" y="340.800781"/>
  <use xlink:href="#glyph2-10" x="53.963867" y="325.800781"/>
  <use xlink:href="#glyph2-11" x="53.963867" y="310.800781"/>
  <use xlink:href="#glyph2-10" x="53.963867" y="295.800781"/>
  <use xlink:href="#glyph2-12" x="53.963867" y="280.800781"/>
  <use xlink:href="#glyph2-13" x="53.963867" y="274.800781"/>
  <use xlink:href="#glyph2-12" x="53.963867" y="268.800781"/>
  <use xlink:href="#glyph2-14" x="53.963867" y="262.800781"/>
  <use xlink:href="#glyph2-15" x="53.963867" y="254.800781"/>
</g>
<g style="fill:rgb(0%,0%,0%);fill-opacity:1;">
  <use xlink:href="#glyph3-1" x="107.132812" y="659.264648"/>
  <use xlink:href="#glyph3-2" x="119.132812" y="659.264648"/>
  <use xlink:href="#glyph3-1" x="125.132812" y="659.264648"/>
</g>
<g style="fill:rgb(0%,0%,0%);fill-opacity:1;">
  <use xlink:href="#glyph3-1" x="213.800781" y="659.264648"/>
  <use xlink:href="#glyph3-2" x="225.800781" y="659.264648"/>
  <use xlink:href="#glyph3-3" x="231.800781" y="659.264648"/>
</g>
<g style="fill:rgb(0%,0%,0%);fill-opacity:1;">
  <use xlink:href="#glyph3-1" x="320.464844" y="659.264648"/>
  <use xlink:href="#glyph3-2" x="332.464844" y="659.264648"/>
  <use xlink:href="#glyph3-4" x="338.464844" y="659.264648"/>
</g>
<g style="fill:rgb(0%,0%,0%);fill-opacity:1;">
  <use xlink:href="#glyph3-1" x="427.132812" y="659.264648"/>
  <use xlink:href="#glyph3-2" x="439.132812" y="659.264648"/>
  <use xlink:href="#glyph3-5" x="445.132812" y="659.264648"/>
</g>
<g style="fill:rgb(0%,0%,0%);fill-opacity:1;">
  <use xlink:href="#glyph3-1" x="533.800781" y="659.264648"/>
  <use xlink:href="#glyph3-2" x="545.800781" y="659.264648"/>
  <use xlink:href="#glyph3-6" x="551.800781" y="659.264648"/>
</g>
<g style="fill:rgb(0%,0%,0%);fill-opacity:1;">
  <use xlink:href="#glyph3-7" x="640.464844" y="659.264648"/>
  <use xlink:href="#glyph3-2" x="652.464844" y="659.264648"/>
  <use xlink:href="#glyph3-1" x="658.464844" y="659.264648"/>
</g>
<g style="fill:rgb(0%,0%,0%);fill-opacity:1;">
  <use xlink:href="#glyph4-1" x="83.264648" y="627.800781"/>
  <use xlink:href="#glyph4-2" x="83.264648" y="615.800781"/>
  <use xlink:href="#glyph4-1" x="83.264648" y="609.800781"/>
</g>
<g style="fill:rgb(0%,0%,0%);fill-opacity:1;">
  <use xlink:href="#glyph4-1" x="83.264648" y="523.800781"/>
  <use xlink:href="#glyph4-2" x="83.264648" y="511.800781"/>
  <use xlink:href="#glyph4-3" x="83.264648" y="505.800781"/>
</g>
<g style="fill:rgb(0%,0%,0%);fill-opacity:1;">
  <use xlink:href="#glyph4-1" x="83.264648" y="419.800781"/>
  <use xlink:href="#glyph4-2" x="83.264648" y="407.800781"/>
  <use xlink:href="#glyph4-4" x="83.264648" y="401.800781"/>
</g>
<g style="fill:rgb(0%,0%,0%);fill-opacity:1;">
  <use xlink:href="#glyph4-1" x="83.264648" y="315.800781"/>
  <use xlink:href="#glyph4-2" x="83.264648" y="303.800781"/>
  <use xlink:href="#glyph4-5" x="83.264648" y="297.800781"/>
</g>
<g style="fill:rgb(0%,0%,0%);fill-opacity:1;">
  <use xlink:href="#glyph4-1" x="83.264648" y="211.800781"/>
  <use xlink:href="#glyph4-2" x="83.264648" y="199.800781"/>
  <use xlink:href="#glyph4-6" x="83.264648" y="193.800781"/>
</g>
<g style="fill:rgb(0%,0%,0%);fill-opacity:1;">
  <use xlink:href="#glyph4-7" x="83.264648" y="107.800781"/>
  <use xlink:href="#glyph4-2" x="83.264648" y="95.800781"/>
  <use xlink:href="#glyph4-1" x="83.264648" y="89.800781"/>
</g>
<g clip-path="url(#clip1)" clip-rule="nonzero">
<path style="fill:none;stroke-width:2.25;stroke-linecap:round;stroke-linejoin:round;stroke:rgb(73.333333%,73.333333%,73.333333%);stroke-opacity:0.501961;stroke-miterlimit:10;" d="M 100.800781 612.800781 L 676.800781 612.800781 "/>
</g>
<g clip-path="url(#clip2)" clip-rule="nonzero">
<path style="fill:none;stroke-width:2.25;stroke-linecap:round;stroke-linejoin:round;stroke:rgb(73.333333%,73.333333%,73.333333%);stroke-opacity:0.501961;stroke-miterlimit:10;" d="M 100.800781 508.800781 L 676.800781 508.800781 "/>
</g>
<g clip-path="url(#clip3)" clip-rule="nonzero">
<path style="fill:none;stroke-width:2.25;stroke-linecap:round;stroke-linejoin:round;stroke:rgb(73.333333%,73.333333%,73.333333%);stroke-opacity:0.501961;stroke-miterlimit:10;" d="M 100.800781 404.800781 L 676.800781 404.800781 "/>
</g>
<g clip-path="url(#clip4)" clip-rule="nonzero">
<path style="fill:none;stroke-width:2.25;stroke-linecap:round;stroke-linejoin:round;stroke:rgb(73.333333%,73.333333%,73.333333%);stroke-opacity:0.501961;stroke-miterlimit:10;" d="M 100.800781 300.800781 L 676.800781 300.800781 "/>
</g>
<g clip-path="url(#clip5)" clip-rule="nonzero">
<path style="fill:none;stroke-width:2.25;stroke-linecap:round;stroke-linejoin:round;stroke:rgb(73.333333%,73.333333%,73.333333%);stroke-opacity:0.501961;stroke-miterlimit:10;" d="M 100.800781 196.800781 L 676.800781 196.800781 "/>
</g>
<g clip-path="url(#clip6)" clip-rule="nonzero">
<path style="fill:none;stroke-width:2.25;stroke-linecap:round;stroke-linejoin:round;stroke:rgb(73.333333%,73.333333%,73.333333%);stroke-opacity:0.501961;stroke-miterlimit:10;" d="M 100.800781 92.800781 L 676.800781 92.800781 "/>
</g>
<g clip-path="url(#clip7)" clip-rule="nonzero">
<path style="fill:none;stroke-width:2.25;stroke-linecap:round;stroke-linejoin:round;stroke:rgb(73.333333%,73.333333%,73.333333%);stroke-opacity:0.501961;stroke-miterlimit:10;" d="M 122.132812 633.601562 L 122.132812 72 "/>
</g>
<g clip-path="url(#clip8)" clip-rule="nonzero">
<path style="fill:none;stroke-width:2.25;stroke-linecap:round;stroke-linejoin:round;stroke:rgb(73.333333%,73.333333%,73.333333%);stroke-opacity:0.501961;stroke-miterlimit:10;" d="M 228.800781 633.601562 L 228.800781 72 "/>
</g>
<g clip-path="url(#clip9)" clip-rule="nonzero">
<path style="fill:none;stroke-width:2.25;stroke-linecap:round;stroke-linejoin:round;stroke:rgb(73.333333%,73.333333%,73.333333%);stroke-opacity:0.501961;stroke-miterlimit:10;" d="M 335.464844 633.601562 L 335.464844 72 "/>
</g>
<g clip-path="url(#clip10)" clip-rule="nonzero">
<path style="fill:none;stroke-width:2.25;stroke-linecap:round;stroke-linejoin:round;stroke:rgb(73.333333%,73.333333%,73.333333%);stroke-opacity:0.501961;stroke-miterlimit:10;" d="M 442.132812 633.601562 L 442.132812 72 "/>
</g>
<g clip-path="url(#clip11)" clip-rule="nonzero">
<path style="fill:none;stroke-width:2.25;stroke-linecap:round;stroke-linejoin:round;stroke:rgb(73.333333%,73.333333%,73.333333%);stroke-opacity:0.501961;stroke-miterlimit:10;" d="M 548.800781 633.601562 L 548.800781 72 "/>
</g>
<g clip-path="url(#clip12)" clip-rule="nonzero">
<path style="fill:none;stroke-width:2.25;stroke-linecap:round;stroke-linejoin:round;stroke:rgb(73.333333%,73.333333%,73.333333%);stroke-opacity:0.501961;stroke-miterlimit:10;" d="M 655.464844 633.601562 L 655.464844 72 "/>
</g>
<path style=" stroke:none;fill-rule:nonzero;fill:rgb(0%,0%,0%);fill-opacity:0.25098;" d="M 125.703125 597.414062 L 125.992188 596.808594 L 126.300781 596.21875 L 126.636719 595.585938 L 127 594.96875 L 127.390625 594.300781 L 127.816406 593.496094 L 128.269531 592.753906 L 128.761719 592.078125 L 129.296875 591.425781 L 129.867188 590.707031 L 130.488281 589.929688 L 131.15625 589.195312 L 131.875 588.46875 L 132.648438 587.570312 L 133.488281 586.613281 L 134.386719 585.605469 L 135.359375 584.644531 L 136.40625 583.558594 L 137.53125 582.300781 L 138.742188 581.105469 L 140.046875 579.804688 L 141.449219 578.574219 L 142.960938 577.308594 L 144.582031 576.035156 L 146.320312 574.667969 L 148.191406 573.195312 L 150.195312 571.953125 L 152.347656 570.503906 L 154.652344 569.007812 L 157.121094 567.480469 L 159.765625 566.039062 L 162.589844 564.375 L 165.609375 562.59375 L 168.835938 560.589844 L 172.273438 558.628906 L 175.933594 556.25 L 179.835938 553.804688 L 183.980469 551.570312 L 188.378906 548.972656 L 193.046875 546.171875 L 197.992188 543.21875 L 203.21875 539.472656 L 208.734375 535.730469 L 214.554688 531.621094 L 220.675781 527.199219 L 227.105469 522.402344 L 233.851562 517.535156 L 240.90625 512.230469 L 248.273438 506.9375 L 255.953125 501.070312 L 263.9375 494.921875 L 272.214844 488.101562 L 280.785156 480.472656 L 289.628906 473.144531 L 298.730469 464.429688 L 308.078125 454.664062 L 317.648438 443.867188 L 327.417969 433.085938 L 337.367188 422.515625 L 347.46875 411.484375 L 357.691406 400.636719 L 368.007812 389.292969 L 378.386719 378.320312 L 388.800781 368.09375 L 399.210938 357.980469 L 409.589844 348.625 L 419.90625 339.757812 L 430.132812 331.527344 L 440.230469 323.941406 L 450.179688 316.65625 L 459.953125 309.972656 L 469.523438 303.171875 L 478.871094 296.703125 L 487.972656 290.1875 L 496.816406 283.59375 L 505.382812 277.648438 L 513.664062 271.90625 L 521.648438 266.664062 L 529.324219 261.5625 L 536.691406 257.394531 L 543.75 253.992188 L 550.492188 250.691406 L 556.925781 247.695312 L 563.046875 245.269531 L 568.863281 242.875 L 574.382812 241.144531 L 579.609375 239.867188 L 584.550781 238.359375 L 589.21875 237.28125 L 593.621094 236.402344 L 597.765625 235.394531 L 601.664062 235.21875 L 605.328125 234.628906 L 608.765625 234.15625 L 611.988281 234.976562 L 615.007812 236.339844 L 617.835938 237.460938 L 620.476562 238.84375 L 622.945312 240.726562 L 625.253906 242.882812 L 627.402344 244.601562 L 629.410156 246.175781 L 631.277344 247.472656 L 633.019531 249.898438 L 634.640625 251.421875 L 636.148438 252.886719 L 637.550781 254.714844 L 638.855469 256.230469 L 640.070312 259.863281 L 641.195312 260.753906 L 642.242188 264.816406 L 643.210938 268.40625 L 644.113281 274.472656 L 644.949219 279.734375 L 645.726562 286.691406 L 646.445312 294.628906 L 647.113281 302.910156 L 647.730469 310.632812 L 648.304688 318.019531 L 648.835938 327.230469 L 649.328125 337.554688 L 649.785156 348.863281 L 650.207031 360.753906 L 650.601562 373.898438 L 650.960938 384.832031 L 651.296875 393.050781 L 651.609375 402.839844 L 651.898438 413.378906 L 651.898438 152.574219 L 651.609375 153.433594 L 651.296875 154.0625 L 650.960938 154.566406 L 650.601562 154.589844 L 650.207031 155.105469 L 649.785156 155.980469 L 649.328125 155.160156 L 648.835938 155.785156 L 648.304688 156.078125 L 647.730469 157.019531 L 647.113281 157.933594 L 646.445312 158.375 L 645.726562 158.960938 L 644.949219 159.773438 L 644.113281 160.34375 L 643.210938 160.640625 L 642.242188 160.832031 L 641.195312 160.800781 L 640.070312 161.234375 L 638.855469 161.746094 L 637.550781 162.261719 L 636.148438 162.332031 L 634.640625 162.75 L 633.019531 162.980469 L 631.277344 163.214844 L 629.410156 163.652344 L 627.402344 163.847656 L 625.253906 164.90625 L 622.945312 165.507812 L 620.476562 166.339844 L 617.835938 167.226562 L 615.007812 168.191406 L 611.988281 169.355469 L 608.765625 170.199219 L 605.328125 171.191406 L 601.664062 172.332031 L 597.765625 173.460938 L 593.621094 175.042969 L 589.21875 176.476562 L 584.550781 178.070312 L 579.609375 179.859375 L 574.382812 181.980469 L 568.863281 184.695312 L 563.046875 187.421875 L 556.925781 189.769531 L 550.492188 192.789062 L 543.75 196.484375 L 536.691406 200.21875 L 529.324219 204.457031 L 521.648438 208.703125 L 513.664062 213.203125 L 505.382812 217.914062 L 496.816406 223.410156 L 487.972656 227.976562 L 478.871094 233.640625 L 469.523438 239.09375 L 459.953125 245.246094 L 450.179688 252.324219 L 440.230469 259.703125 L 430.132812 267.628906 L 419.90625 276.289062 L 409.589844 285.453125 L 399.210938 295.339844 L 388.800781 306.101562 L 378.386719 316.925781 L 368.007812 327.699219 L 357.691406 338.710938 L 347.46875 350.5625 L 337.367188 361.042969 L 327.417969 370.824219 L 317.648438 379.945312 L 308.078125 389.117188 L 298.730469 398.324219 L 289.628906 407.414062 L 280.785156 416.683594 L 272.214844 425.433594 L 263.9375 433.871094 L 255.953125 441.738281 L 248.273438 449.277344 L 240.90625 456.65625 L 233.851562 463.292969 L 227.105469 469.878906 L 220.675781 475.945312 L 214.554688 481.992188 L 208.734375 487.78125 L 203.21875 493.78125 L 197.992188 499.644531 L 193.046875 504.535156 L 188.378906 509.425781 L 183.980469 513.582031 L 179.835938 517.742188 L 175.933594 521.746094 L 172.273438 525.539062 L 168.835938 529.03125 L 162.589844 535.277344 L 159.765625 538.296875 L 157.121094 540.664062 L 154.652344 543.054688 L 152.347656 545.417969 L 150.195312 547.46875 L 148.191406 549.269531 L 146.320312 551.25 L 144.582031 553.015625 L 142.960938 554.78125 L 141.449219 556.535156 L 140.046875 558.34375 L 138.742188 559.933594 L 137.53125 561.421875 L 136.40625 562.753906 L 135.359375 563.976562 L 134.386719 565.042969 L 133.488281 566.21875 L 132.648438 567.308594 L 131.875 568.238281 L 131.15625 569.019531 L 130.488281 569.738281 L 129.867188 570.226562 L 129.296875 570.890625 L 128.761719 571.539062 L 128.269531 571.144531 L 127.816406 571.371094 L 127.390625 572.238281 L 127 572.246094 L 126.636719 572.65625 L 126.300781 572.316406 L 125.992188 572.207031 L 125.703125 572.074219 Z M 125.703125 597.414062 "/>
<path style="fill:none;stroke-width:2.25;stroke-linecap:round;stroke-linejoin:round;stroke:rgb(15.686275%,88.627451%,89.803922%);stroke-opacity:1;stroke-dasharray:9,9;stroke-miterlimit:10;" d="M 122.132812 612.800781 L 655.464844 92.800781 "/>
<path style=" stroke:none;fill-rule:nonzero;fill:rgb(5.882353%,37.647059%,41.960784%);fill-opacity:0.14902;" d="M 266.132812 612.800781 L 655.464844 612.800781 L 655.464844 92.800781 L 266.132812 92.800781 Z M 266.132812 612.800781 "/>
<g clip-path="url(#clip13)" clip-rule="nonzero">
<path style="fill:none;stroke-width:2.25;stroke-linecap:round;stroke-linejoin:round;stroke:rgb(0%,48.627451%,42.352941%);stroke-opacity:1;stroke-dasharray:2.25,6.75;stroke-miterlimit:10;" d="M 266.132812 633.601562 L 266.132812 72 "/>
</g>
</g>
</svg>
